# xmcd
#
# Track frame offsets: 
#        150
#        8741
#        43179
#        51318
#        91919
#        99161
#        104178
#        115289
#        152103
#        183931
#        190857
#        223943
#        264813
#        280008
#
# Disc length: 3992 seconds
#
# Revision: 0
# Processed by: cddbd v1.5.2PL0 Copyright (c) Steve Scherf et al.
# Submitted via: ExactAudioCopy v1.0b1
#
DISCID=bf0f960e
DTITLE=Player Piano vol. 2 - Chopin played by pianists around 1900
DYEAR=2005
DGENRE=Piano
TTITLE0=Waltz, piano, no. 06, D-Flat Major     Op. 64  No. 1  BI 164:1
TTITLE1=Bolero, piano, C Major-A Major     Op. 19  BI 081
TTITLE2=Etude, piano, no. 18, g-sharp minor     Op. 25  No. 6  BI 078:
TTITLE2=3
TTITLE3=Ballade, piano, no. 1, g minor   Largo - Moderato - Con fuoco 
TTITLE3=Op. 23  BI 066
TTITLE4=Etude, piano, no. 05, G-Flat Major "Black keys"     Op. 10  No
TTITLE4=5  BI 057:1
TTITLE5=Etude, piano, no. 21, G-flat major     Op. 25  No. 9  BI 078:5
TTITLE6=Etude, piano, no. 12, c minor "Revolutionary"     Op. 10  No. 
TTITLE6=12  BI 067
TTITLE7=Scherzo, piano, no. 2, b-flat minor   Presto - Sostenuto  Op. 
TTITLE7=31  BI 111
TTITLE8=Sonata, piano, no. 02, b-flat minor   Marche funèbre: Lento  O
TTITLE8=p. 35  BI 128
TTITLE9=Sonata, piano, no. 02, b-flat minor   Finale: Presto  Op. 35  
TTITLE9=BI 128
TTITLE10=Ballade, piano, no. 3, A-Flat Major     Op. 47  BI 136
TTITLE11=Ballade, piano, no. 4, f minor     Op. 52  BI 146
TTITLE12=Waltz, piano, no. 07, c-sharp minor     Op. 64  No. 2  BI 164
TTITLE12=:2
TTITLE13=Nocturne, piano, no. 05, F-sharp major     Op. 15  No. 2  BI 
TTITLE13=055:2
EXTD=
EXTT0=
EXTT1=
EXTT2=
EXTT3=
EXTT4=
EXTT5=
EXTT6=
EXTT7=
EXTT8=
EXTT9=
EXTT10=
EXTT11=
EXTT12=
EXTT13=
PLAYORDER=
